[Header]
FileType HTR
DataType HTRS
FileVersion 1
NumSegments 22
NumFrames 7
DataFrameRate 24
EulerRotationOrder ZYX
CalibrationUnits mm
RotationUnits Degrees
GlobalAxisofGravity Y
BoneLengthAxis Y
ScaleFactor 1.0
[SegmentNames&Hierarchy]
reference	GLOBAL
Hips	reference
Spine	Hips
Spine1	Spine
Neck	Spine1
Head	Neck
LeftShoulder	Spine1
LeftArm	LeftShoulder
LeftForeArm	LeftArm
LeftHand	LeftForeArm
RightShoulder	Spine1
RightArm	RightShoulder
RightForeArm	RightArm
RightHand	RightForeArm
LeftUpLeg	Hips
LeftLeg	LeftUpLeg
LeftFoot	LeftLeg
LeftToeBase	LeftFoot
RightUpLeg	Hips
RightLeg	RightUpLeg
RightFoot	RightLeg
RightToeBase	RightFoot
[BasePosition]
reference	0	0	0	0	0	0	1
Hips	0	0	0	0	0	0	1
Spine	0	0	0	0	-0	90	1
Spine1	0	0	0	0	0	0	1
Neck	0	0	0	-7.352327771	-7.352327771	90	1
Head	0	0	0	0	-0	90	1
LeftShoulder	0	0	0	0	0	0	1
LeftArm	0	0	0	0	0	0	1
LeftForeArm	0	0	0	0	0	0	1
LeftHand	0	0	0	0	0	0	1
RightShoulder	0	0	0	0	-0	180	1
RightArm	0	0	0	0	-0	180	1
RightForeArm	0	0	0	0	-0	180	1
RightHand	0	0	0	0	-0	180	1
LeftUpLeg	0	0	0	0	-0	-90	1
LeftLeg	0	0	0	0	-0	-90	1
LeftFoot	0	0	0	66.57146043	-66.57146043	-90	1
LeftToeBase	0	0	0	0	-90	0	1
RightUpLeg	0	0	0	0	-0	-90	1
RightLeg	0	0	0	0	-0	-90	1
RightFoot	0	0	0	66.57146043	-66.57146043	-90	1
RightToeBase	0	0	0	0	-90	0	1
[reference]
51	0	0	0	0	-0	0	1.0
52	0	0	0	0	-0	0	1.0
53	0	0	0	0	-0	0	1.0
54	0	0	0	0	-0	0	1.0
55	0	0	0	0	-0	0	1.0
56	0	0	0	0	-0	0	1.0
57	0	0	0	0	-0	0	1.0
[Hips]
51	0.221460104	9.019493103	3.5323596	8.886664391	-97.07781219	-7.497939587	1.0
52	0.2076642066	8.772641182	3.806999922	31.62431526	-97.13327026	-31.29736519	1.0
53	0.1930875331	8.595672607	4.050681114	25.10938072	-98.20193481	-24.27645302	1.0
54	0.1674013734	8.596390724	4.283364296	5.775242805	-99.77062225	-3.62490654	1.0
55	0.09481234848	8.607580185	4.552599907	14.56266785	-99.23923492	-14.42276001	1.0
56	0.05115484819	8.725421906	4.843324661	19.57345963	-97.4125824	-18.6422596	1.0
57	-0.01119390316	8.825282097	5.142696381	19.03787994	-97.27656555	-17.94000053	1.0
[Spine]
51	0	0.7457100153	0	-5.736163616	-2.030236721	-89.00576019	1.0
52	0	0.7457100153	0	-5.629041195	-2.381174326	-90.56160736	1.0
53	0	0.7457100153	0	2.109779358	4.328404903	-92.7665863	1.0
54	0	0.7457100153	0	-8.863611221	0.7219833136	-86.43218231	1.0
55	0	0.7457100153	0	-6.174521446	-0.3229209185	-89.43984985	1.0
56	0	0.7457100153	0	-6.962132454	-2.00564003	-88.90473938	1.0
57	0	0.7457100153	0	-7.429294109	-2.610257387	-89.31433868	1.0
[Spine1]
51	0	2.140589952	0	3.742051125	-0.748259902	0.6358097196	1.0
52	0	2.140589952	0	3.390613556	-0.6069024801	-1.460289478	1.0
53	0	2.140589952	0	-17.8459549	1.383778095	-0.2648551762	1.0
54	0	2.140589952	0	7.372094154	0.5942208767	-2.786739826	1.0
55	0	2.140589952	0	6.083055973	-0.3837371171	2.67799449	1.0
56	0	2.140589952	0	5.309619427	-0.6991149187	-0.8513187766	1.0
57	0	2.140589952	0	4.616371155	-0.8781312704	-0.1091990694	1.0
[Neck]
51	0	2.32246995	0	-14.61041069	1.077968478	-92.69955444	1.0
52	0	2.32246995	0	-15.42266369	4.094452858	-91.22761536	1.0
53	0	2.32246995	0	11.15382385	0.452588737	-89.50051117	1.0
54	0	2.32246995	0	-17.71674156	3.721031666	-94.2467041	1.0
55	0	2.32246995	0	-13.26085472	3.449563503	-97.24246979	1.0
56	0	2.32246995	0	-11.41706467	3.911849499	-92.91527557	1.0
57	0	2.32246995	0	-10.25263119	3.878386497	-93.69297028	1.0
[Head]
51	0	1.409579992	0.1818799973	-3.038181782	-0.06327006221	-88.22699738	1.0
52	0	1.409579992	0.1818799973	-2.2689991	-2.131308794	-93.10795593	1.0
53	0	1.409579992	0.1818799973	-11.08900356	-6.668193817	-94.05900574	1.0
54	0	1.409579992	0.1818799973	-3.499496222	-3.212008953	-92.92404175	1.0
55	0	1.409579992	0.1818799973	-3.804310799	-3.498609543	-91.24039459	1.0
56	0	1.409579992	0.1818799973	-4.009683132	-3.157185555	-93.30001831	1.0
57	0	1.409579992	0.1818799973	-4.047046185	-3.196193457	-93.2673645	1.0
[LeftShoulder]
51	0.3668199778	1.946700096	-0.02662999928	-17.66074944	-11.21741486	-0.7175797224	1.0
52	0.3668199778	1.946700096	-0.02662999928	-18.11067963	-11.15070343	-0.2279618233	1.0
53	0.3668199778	1.946700096	-0.02662999928	15.21490288	-19.65831947	-23.42705727	1.0
54	0.3668199778	1.946700096	-0.02662999928	-16.54698372	-10.10150814	-0.9414997697	1.0
55	0.3668199778	1.946700096	-0.02662999928	-15.54072475	-10.50841618	-4.794830799	1.0
56	0.3668199778	1.946700096	-0.02662999928	-16.88194847	-10.69445705	-0.4508995712	1.0
57	0.3668199778	1.946700096	-0.02662999928	-17.6193943	-11.14639091	-0.2165827304	1.0
[LeftArm]
51	1.140689969	0	0	51.75621414	6.784842491	-69.43276215	1.0
52	1.140689969	0	0	51.42354965	6.747989178	-70.71298218	1.0
53	1.140689969	0	0	41.3239975	-4.402797699	-54.1253891	1.0
54	1.140689969	0	0	50.34802628	5.029260635	-72.6008606	1.0
55	1.140689969	0	0	51.08860779	7.012527943	-70.13828278	1.0
56	1.140689969	0	0	50.62849045	6.438652515	-71.54405975	1.0
57	1.140689969	0	0	50.25595856	6.24098444	-70.95709991	1.0
[LeftForeArm]
51	2.749800205	0	0	-146.2048798	-42.04555511	162.7757416	1.0
52	2.749800205	0	0	-145.4714813	-41.87251282	162.3443909	1.0
53	2.749800205	0	0	-145.8153076	-42.06468582	161.7380676	1.0
54	2.749800205	0	0	-149.7714996	-43.26898956	163.8944397	1.0
55	2.749800205	0	0	-145.987854	-42.41081238	161.2979584	1.0
56	2.749800205	0	0	-147.7349701	-43.00127029	162.6856232	1.0
57	2.749800205	0	0	-147.9842072	-42.94635391	163.2401581	1.0
[LeftHand]
51	2.295179844	0	0	-9.723605156	-22.52132988	2.505677462	1.0
52	2.295179844	0	0	-10.3433857	-22.30659103	3.458622456	1.0
53	2.295179844	0	0	-11.70464802	-20.37128067	2.870977879	1.0
54	2.295179844	0	0	-8.980908394	-21.64429855	-0.3013045192	1.0
55	2.295179844	0	0	-12.22435856	-21.53787804	1.245601416	1.0
56	2.295179844	0	0	-10.40579796	-21.34939003	2.130156517	1.0
57	2.295179844	0	0	-9.58899498	-21.54323578	2.837842226	1.0
[RightShoulder]
51	-0.3601199985	1.946700096	-0.02662999928	-8.243168831	1.951531649	176.0283051	1.0
52	-0.3601199985	1.946700096	-0.02662999928	-10.03500938	2.700118065	174.245697	1.0
53	-0.3601199985	1.946700096	-0.02662999928	16.44109726	1.089954853	191.6539001	1.0
54	-0.3601199985	1.946700096	-0.02662999928	-6.894690514	3.676695108	173.7418823	1.0
55	-0.3601199985	1.946700096	-0.02662999928	-5.314770699	3.934948921	173.8201904	1.0
56	-0.3601199985	1.946700096	-0.02662999928	-5.965246201	2.841980934	176.2675323	1.0
57	-0.3601199985	1.946700096	-0.02662999928	-6.927502155	2.178607702	174.8485413	1.0
[RightArm]
51	-1.140689969	0	0	60.13420105	-0.2666788101	-104.9140549	1.0
52	-1.140689969	0	0	59.75532532	-0.6277551055	-103.5348053	1.0
53	-1.140689969	0	0	52.28582001	4.499363899	-121.4027328	1.0
54	-1.140689969	0	0	55.89067841	2.314953327	-103.2037582	1.0
55	-1.140689969	0	0	56.20700836	0.1431163549	-103.8213501	1.0
56	-1.140689969	0	0	59.10277939	-0.7331293821	-104.6933746	1.0
57	-1.140689969	0	0	59.60773087	-0.5351970792	-104.3604126	1.0
[RightForeArm]
51	-2.749800205	0	0	-105.2134247	38.97771454	32.13029861	1.0
52	-2.749800205	0	0	-105.7068634	39.04026794	31.88982773	1.0
53	-2.749800205	0	0	-96.94384003	34.76864624	35.91461182	1.0
54	-2.749800205	0	0	-112.6440582	43.1264801	30.19123268	1.0
55	-2.749800205	0	0	-113.2394714	43.38470459	30.95240021	1.0
56	-2.749800205	0	0	-108.4074326	40.71916962	32.46698761	1.0
57	-2.749800205	0	0	-106.9718094	40.15893936	32.75741577	1.0
[RightHand]
51	-2.295179844	0	0	-7.219108582	19.2465477	158.216217	1.0
52	-2.295179844	0	0	-7.15835762	18.98493195	157.920578	1.0
53	-2.295179844	0	0	-12.64830017	18.98973083	158.1133118	1.0
54	-2.295179844	0	0	-4.731850147	18.64698792	158.9113159	1.0
55	-2.295179844	0	0	-6.35051012	18.93338394	160.0619354	1.0
56	-2.295179844	0	0	-7.989407539	18.9947052	160.1186829	1.0
57	-2.295179844	0	0	-8.027597427	19.0117836	159.5925903	1.0
[LeftUpLeg]
51	0.9094099998	0	0	-4.935733795	0.8901513815	93.77110291	1.0
52	0.9094099998	0	0	-7.739296913	-3.525784016	92.97642517	1.0
53	0.9094099998	0	0	-11.35356617	-4.867096901	97.53139496	1.0
54	0.9094099998	0	0	-11.49843693	-3.960819483	103.9656982	1.0
55	0.9094099998	0	0	-8.057086945	-1.034650087	103.7580185	1.0
56	0.9094099998	0	0	-7.457649708	3.635223627	103.8897247	1.0
57	0.9094099998	0	0	-5.640773773	4.723986626	105.1755371	1.0
[LeftLeg]
51	0	-4.498080254	0	19.81618881	-1.088865757	82.84428406	1.0
52	0	-4.498080254	0	30.69532394	-5.992024422	77.44337463	1.0
53	0	-4.498080254	0	38.42318726	-2.61289835	73.75957489	1.0
54	0	-4.498080254	0	37.1463356	2.601749897	75.54907227	1.0
55	0	-4.498080254	0	32.04595947	0.5661471486	78.43663025	1.0
56	0	-4.498080254	0	26.48776436	-0.9842930436	83.29549408	1.0
57	0	-4.498080254	0	20.26927376	4.295516968	86.67899323	1.0
[LeftFoot]
51	0	-3.729400158	0	12.71979713	100.723465	51.22332764	1.0
52	0	-3.729400158	0	-8.40793705	103.4775696	39.92437363	1.0
53	0	-3.729400158	0	-37.61250305	110.1919556	19.84373474	1.0
54	0	-3.729400158	0	-42.27338791	109.7843781	16.95468903	1.0
55	0	-3.729400158	0	-24.88467979	109.6274567	29.41174698	1.0
56	0	-3.729400158	0	-25.4562149	104.0461731	19.73365021	1.0
57	0	-3.729400158	0	-85.2239151	110.8700867	-42.66430664	1.0
[LeftToeBase]
51	0	-0.5911099911	1.364109993	0	0	0	1.0
52	0	-0.5911099911	1.364109993	0	0	0	1.0
53	0	-0.5911099911	1.364109993	0	0	0	1.0
54	0	-0.5911099911	1.364109993	0	0	0	1.0
55	0	-0.5911099911	1.364109993	0	0	0	1.0
56	0	-0.5911099911	1.364109993	0	0	0	1.0
57	0	-0.5911099911	1.364109993	0	0	0	1.0
[RightUpLeg]
51	-0.9094099998	0	0	-1.502646208	-0.1260031462	94.84151459	1.0
52	-0.9094099998	0	0	-0.7135246396	-5.189943314	93.32529449	1.0
53	-0.9094099998	0	0	-4.145979404	-9.009121895	93.31932068	1.0
54	-0.9094099998	0	0	-8.282989502	-4.148808479	94.19562531	1.0
55	-0.9094099998	0	0	-6.037617683	-7.677965164	90.48288727	1.0
56	-0.9094099998	0	0	-4.341333866	-6.919303894	87.96628571	1.0
57	-0.9094099998	0	0	-2.709646225	-7.073083878	85.39078522	1.0
[RightLeg]
51	0	-4.498080254	0	15.50018311	-2.145335674	89.34080505	1.0
52	0	-4.498080254	0	17.68137932	-5.643696785	85.01531219	1.0
53	0	-4.498080254	0	23.32233047	-2.20960784	82.68759918	1.0
54	0	-4.498080254	0	29.68688583	-1.481133461	83.32678223	1.0
55	0	-4.498080254	0	28.02476501	-0.8125789762	82.32972717	1.0
56	0	-4.498080254	0	23.50019836	-4.185833931	82.28768921	1.0
57	0	-4.498080254	0	19.72588158	-5.587067604	82.70035553	1.0
[RightFoot]
51	0	-3.729400158	0	83.79875946	52.95009613	117.3810883	1.0
52	0	-3.729400158	0	81.88037109	68.05908966	129.0932007	1.0
53	0	-3.729400158	0	68.34420776	67.14078522	126.9508438	1.0
54	0	-3.729400158	0	70.23158264	67.54431915	126.19664	1.0
55	0	-3.729400158	0	79.46250916	63.25403595	133.8811493	1.0
56	0	-3.729400158	0	84.46947479	59.66501617	134.7662506	1.0
57	0	-3.729400158	0	91.70081329	55.13766479	136.6986237	1.0
[RightToeBase]
51	0	-0.5911099911	1.364109993	0	0	0	1.0
52	0	-0.5911099911	1.364109993	0	0	0	1.0
53	0	-0.5911099911	1.364109993	0	0	0	1.0
54	0	-0.5911099911	1.364109993	0	0	0	1.0
55	0	-0.5911099911	1.364109993	0	0	0	1.0
56	0	-0.5911099911	1.364109993	0	0	0	1.0
57	0	-0.5911099911	1.364109993	0	0	0	1.0
[EndOfFile]
